<svg
   xmlns:dc="http://purl.org/dc/elements/1.1/"
   xmlns:cc="http://creativecommons.org/ns#"
   xmlns:rdf="http://www.w3.org/1999/02/22-rdf-syntax-ns#"
   xmlns:svg="http://www.w3.org/2000/svg"
   xmlns="http://www.w3.org/2000/svg"
   xmlns:sodipodi="http://sodipodi.sourceforge.net/DTD/sodipodi-0.dtd"
   xmlns:inkscape="http://www.inkscape.org/namespaces/inkscape"
   version="1.1"
   id="Layer_1"
   x="0px"
   y="0px"
   viewBox="0 0 43.630853 40.1"
   xml:space="preserve"
   sodipodi:docname="logo.svg"
   width="43.630852"
   height="40.099998"
   inkscape:version="1.0.1 (c497b03c, 2020-09-10)"><metadata
   id="metadata875"><rdf:RDF><cc:Work
       rdf:about=""><dc:format>image/svg+xml</dc:format><dc:type
         rdf:resource="http://purl.org/dc/dcmitype/StillImage" /></cc:Work></rdf:RDF></metadata><defs
   id="defs873" /><sodipodi:namedview
   pagecolor="#ffffff"
   bordercolor="#666666"
   borderopacity="1"
   objecttolerance="10"
   gridtolerance="10"
   guidetolerance="10"
   inkscape:pageopacity="0"
   inkscape:pageshadow="2"
   inkscape:window-width="1660"
   inkscape:window-height="885"
   id="namedview871"
   showgrid="false"
   inkscape:zoom="1.207036"
   inkscape:cx="253.81443"
   inkscape:cy="249.099"
   inkscape:window-x="0"
   inkscape:window-y="25"
   inkscape:window-maximized="0"
   inkscape:current-layer="Layer_1" />
<g
   id="g868"
   transform="translate(-2.1845739,-6.9)">
	<ellipse
   id="XMLID_56_"
   class="st6"
   cx="24"
   cy="45.5"
   rx="18"
   ry="1.5" />
	<path
   id="XMLID_55_"
   class="st39"
   d="m 36,29.8 -1.4,8 c -1.9,-3.9 -6,-6.6 -10.6,-6.6 -4.7,0 -8.7,2.7 -10.6,6.6 l -1.4,-8 -4.9,0.5 1.2,11.1 c 0.2,2 1.9,3.5 3.9,3.5 v 0 H 36 v 0 c 2,0 3.7,-1.5 3.9,-3.5 l 1.2,-11.1 z" />
	<g
   id="g841">
		<polygon
   class="st40"
   points="12.4,32.2 12,29.8 7.1,30.3 7.3,32.8 "
   id="polygon835" />
		<polygon
   class="st40"
   points="40.7,32.8 40.9,30.3 36,29.8 35.6,32.2 "
   id="polygon837" />
		<path
   class="st40"
   d="m 24,31.2 c -4.7,0 -8.7,2.7 -10.6,6.6 l 0.3,1.8 c 2.1,-3.6 5.9,-6 10.3,-6 4.4,0 8.2,2.4 10.3,6 l 0.3,-1.8 C 32.7,33.9 28.7,31.2 24,31.2 Z"
   id="path839" />
	</g>
	<path
   id="XMLID_54_"
   class="st2"
   d="m 36,29.8 -1.4,8 c -1.9,-3.9 -6,-6.6 -10.6,-6.6 -4.7,0 -8.7,2.7 -10.6,6.6 l -1.4,-8 -4.9,0.5 1.2,11.1 c 0.2,2 1.9,3.5 3.9,3.5 v 0 H 36 v 0 c 2,0 3.7,-1.5 3.9,-3.5 l 1.2,-11.1 z" />
	<path
   id="XMLID_53_"
   class="st19"
   d="m 24,35.1 v 0 c -1.4,0 -2.5,-1.1 -2.5,-2.5 v -2.8 c 0,-1.4 1.1,-2.5 2.5,-2.5 v 0 c 1.4,0 2.5,1.1 2.5,2.5 v 2.8 c 0,1.4 -1.1,2.5 -2.5,2.5 z" />
	<path
   id="XMLID_52_"
   class="st11"
   d="m 24,27.2 c -1.4,0 -2.5,1.1 -2.5,2.5 v 0.6 c 0,1.4 1.1,2.5 2.5,2.5 1.4,0 2.5,-1.1 2.5,-2.5 v -0.6 c 0,-1.4 -1.1,-2.5 -2.5,-2.5 z" />
	<path
   id="XMLID_51_"
   class="st2"
   d="m 24,35.1 v 0 c -1.4,0 -2.5,-1.1 -2.5,-2.5 v -2.8 c 0,-1.4 1.1,-2.5 2.5,-2.5 v 0 c 1.4,0 2.5,1.1 2.5,2.5 v 2.8 c 0,1.4 -1.1,2.5 -2.5,2.5 z" />
	<path
   id="XMLID_50_"
   class="st10"
   d="M 9.5,29.1 6.3,28.5 C 5.8,28.4 5.5,27.9 5.6,27.5 v 0 c 0.1,-0.5 0.6,-0.8 1,-0.7 l 4.3,0.8 z" />
	<path
   id="XMLID_49_"
   class="st10"
   d="m 3.3,27.9 4.1,0.8 c 1,-0.8 2,-1.4 3.6,-1.1 v 0 c 1,0.2 1.7,1.2 1.5,2.2 v 0 c -0.2,1 -1.2,1.7 -2.2,1.5 L 3,29.9 C 2.5,29.8 2.1,29.3 2.2,28.7 2.3,28.2 2.8,27.8 3.3,27.9 Z" />
	<path
   id="XMLID_48_"
   class="st10"
   d="m 38.5,29.1 3.2,-0.6 c 0.5,-0.1 0.8,-0.6 0.7,-1 v 0 C 42.3,27 41.8,26.7 41.4,26.8 L 37,27.6 Z" />
	<path
   id="XMLID_47_"
   class="st10"
   d="m 44.7,27.9 -4.1,0.8 c -1,-0.8 -2,-1.4 -3.6,-1.1 v 0 c -1,0.2 -1.7,1.2 -1.5,2.2 v 0 c 0.2,1 1.2,1.7 2.2,1.5 L 45,29.9 c 0.5,-0.1 0.9,-0.6 0.8,-1.2 -0.1,-0.5 -0.6,-0.9 -1.1,-0.8 z" />
	<line
   id="XMLID_46_"
   class="st2"
   x1="13.4"
   y1="37.799999"
   x2="14.1"
   y2="41.900002" />
	<line
   id="XMLID_45_"
   class="st2"
   x1="34.599998"
   y1="37.799999"
   x2="33.900002"
   y2="41.900002" />
	<g
   id="g866">
		<path
   id="XMLID_44_"
   class="st13"
   d="m 24,6.9 c -0.8,0 -1.7,0.1 -2.4,0.3 -1.9,0.4 -4.3,1.1 -6.5,0.7 -0.2,2.1 0.8,3.2 0.8,3.2 -1.1,1.6 -1.8,3.5 -1.8,5.6 v 5.1 H 33.7 V 16.7 C 33.8,11.3 29.4,6.9 24,6.9 Z" />
		<g
   id="XMLID_42_">
			<path
   id="XMLID_43_"
   class="st18"
   d="m 24,6.9 c -0.8,0 -1.7,0.1 -2.4,0.3 -1.9,0.4 -4.3,1.1 -6.5,0.7 -0.2,1.6 0.4,2.6 0.7,3 2,0.2 4.1,-0.4 5.8,-0.8 0.8,-0.2 1.6,-0.3 2.4,-0.3 5.4,0 9.8,4.4 9.8,9.8 V 16.7 C 33.8,11.3 29.4,6.9 24,6.9 Z" />
		</g>
		<path
   id="XMLID_41_"
   class="st2"
   d="m 24,6.9 c -0.8,0 -1.7,0.1 -2.4,0.3 -1.9,0.4 -4.3,1.1 -6.5,0.7 -0.2,2.1 0.8,3.2 0.8,3.2 -1.1,1.6 -1.8,3.5 -1.8,5.6 v 5.1 H 33.7 V 16.7 C 33.8,11.3 29.4,6.9 24,6.9 Z" />
		<path
   class="st10"
   d="m 34.9,21.1 c -0.1,-0.7 -0.7,-1.3 -1.4,-1.5 l -0.6,-0.2 c -0.9,-0.2 -1.5,-1.1 -1.5,-2 v -2.1 c 0,-0.9 -0.6,-1.6 -1.4,-1.8 -1.6,0.7 -3.7,1.1 -6,1.1 -2.3,0 -4.4,-0.4 -6,-1.1 -0.8,0.2 -1.4,0.9 -1.4,1.8 v 2.1 c 0,0.9 -0.6,1.7 -1.5,2 l -0.6,0.2 c -0.7,0.2 -1.3,0.8 -1.4,1.5 -0.1,1.1 0.8,2 1.8,2 0,0 0.1,0 0.1,0 0.7,4.4 4.4,7.7 9,7.7 4.6,0 8.3,-3.4 9,-7.7 0,0 0.1,0 0.1,0 1,0 1.9,-0.9 1.8,-2 z"
   id="path857" />
		<circle
   id="XMLID_40_"
   class="st7"
   cx="19.299999"
   cy="20.9"
   r="0.80000001" />
		<circle
   id="XMLID_39_"
   class="st7"
   cx="28.700001"
   cy="20.9"
   r="0.80000001" />
		<ellipse
   id="XMLID_38_"
   class="st11"
   cx="18.1"
   cy="24.200001"
   rx="1"
   ry="0.60000002" />
		<ellipse
   id="XMLID_37_"
   class="st11"
   cx="29.9"
   cy="24.200001"
   rx="1"
   ry="0.60000002" />
		<path
   id="XMLID_36_"
   class="st3"
   d="m 26.5,27.8 c 0,0.9 -1.1,1.1 -2.5,1.1 -1.4,0 -2.5,-0.2 -2.5,-1.1 0,-0.9 1,-2.1 2.5,-2.1 1.5,0 2.5,1.3 2.5,2.1 z" />
		<path
   id="XMLID_35_"
   class="st16"
   d="M 26.2,28.5 C 25.8,27.9 25,27.4 24,27.4 c -1,0 -1.8,0.5 -2.2,1.1 0.4,0.3 1.3,0.4 2.2,0.4 0.9,0 1.8,-0.1 2.2,-0.4 z" />
		<path
   id="XMLID_34_"
   class="st2"
   d="m 26.5,27.8 c 0,0.9 -1.1,1.1 -2.5,1.1 -1.4,0 -2.5,-0.2 -2.5,-1.1 0,-0.9 1,-2.1 2.5,-2.1 1.5,0 2.5,1.3 2.5,2.1 z" />
	</g>
</g>
</svg>
