<svg width="31mm" height="30mm" version="1.1" viewBox="0 0 109.84 106.3" xmlns="http://www.w3.org/2000/svg" xmlns:xlink="http://www.w3.org/1999/xlink">
 <title>key - lineart</title>
 <defs>
  <pattern id="a" patternTransform="matrix(.65735 0 0 .65735 -.54223 -1.7664)" xlink:href="#Polkadots-large"/>
  <pattern id="b" patternTransform="matrix(.68387 0 0 .66619 -.54223 -1.7664)" xlink:href="#Polkadots-large"/>
  <pattern id="c" patternTransform="matrix(.72806 0 0 .67503 -.54223 -1.7664)" xlink:href="#Polkadots-large"/>
  <pattern id="Polkadots-large" width="10" height="10" patternTransform="translate(0) scale(10)" patternUnits="userSpaceOnUse">
   <circle cx="2.567" cy=".81" r=".45"/>
   <circle cx="3.048" cy="2.33" r=".45"/>
   <circle cx="4.418" cy="2.415" r=".45"/>
   <circle cx="1.844" cy="3.029" r=".45"/>
   <circle cx="6.08" cy="1.363" r=".45"/>
   <circle cx="5.819" cy="4.413" r=".45"/>
   <circle cx="4.305" cy="4.048" r=".45"/>
   <circle cx="5.541" cy="3.045" r=".45"/>
   <circle cx="4.785" cy="5.527" r=".45"/>
   <circle cx="2.667" cy="5.184" r=".45"/>
   <circle cx="7.965" cy="1.448" r=".45"/>
   <circle cx="7.047" cy="5.049" r=".45"/>
   <circle cx="4.34" cy=".895" r=".45"/>
   <circle cx="7.125" cy=".34" r=".45"/>
   <circle cx="9.553" cy="1.049" r=".45"/>
   <circle cx="7.006" cy="2.689" r=".45"/>
   <circle cx="8.909" cy="2.689" r=".45"/>
   <circle cx="9.315" cy="4.407" r=".45"/>
   <circle cx="7.82" cy="3.87" r=".45"/>
   <circle cx="8.27" cy="5.948" r=".45"/>
   <circle cx="7.973" cy="7.428" r=".45"/>
   <circle cx="9.342" cy="8.072" r=".45"/>
   <circle cx="8.206" cy="9.315" r=".45"/>
   <circle cx="9.682" cy="9.475" r=".45"/>
   <circle cx="9.688" cy="6.186" r=".45"/>
   <circle cx="3.379" cy="6.296" r=".45"/>
   <circle cx="2.871" cy="8.204" r=".45"/>
   <circle cx="4.59" cy="8.719" r=".45"/>
   <circle cx="3.181" cy="9.671" r=".45"/>
   <circle cx="5.734" cy="7.315" r=".45"/>
   <circle cx="6.707" cy="6.513" r=".45"/>
   <circle cx="5.73" cy="9.67" r=".45"/>
   <circle cx="6.535" cy="8.373" r=".45"/>
   <circle cx="4.37" cy="7.154" r=".45"/>
   <circle cx=".622" cy="7.25" r=".45"/>
   <circle cx=".831" cy="5.679" r=".45"/>
   <circle cx="1.257" cy="8.519" r=".45"/>
   <circle cx="1.989" cy="6.877" r=".45"/>
   <circle cx=".374" cy="3.181" r=".45"/>
   <circle cx="1.166" cy="1.664" r=".45"/>
   <circle cx="1.151" cy=".093" r=".45"/>
   <circle cx="1.151" cy="10.093" r=".45"/>
   <circle cx="1.302" cy="4.451" r=".45"/>
   <circle cx="3.047" cy="3.763" r=".45"/>
  </pattern>
 </defs>
 <g transform="translate(3.0066 2.3648)" fill-rule="evenodd">
  <path d="m20.848 4.1243-9.5469 7.0703c0-1e-6 5.6562 6.3637 6.0098 6.6289 0 0-3.5115 3.8103-5.832 4.7734-1.8873 0.78332-4.3612-0.45477-6.0996 0.61914-2.4338 1.5035-4.4199 6.6289-4.4199 6.6289l10.43 13.699s1.6669-6.9662 4.1543-8.6621c1.9967-1.3614 5.0831 1.2516 7.248 0.17773 2.3442-1.1628 4.5977-6.3633 4.5977-6.3633l21.213 23.775 4.0645 0.70703-0.5293 3.4473 3.0059 0.17773-0.17774 3.0938 2.0332 2.1211 2.8281-0.26562 0.53125 4.4199 4.5078-0.35352 2.7383 2.8281c0 1e-6 -5.854 8.1227-5.4785 12.727 0.35541 4.3581 3.3424 8.7638 7.0703 11.049 5.3764 3.2954 12.847 3.8617 18.826 1.8574 5.8912-1.9748 11.926-6.6862 13.701-12.641 1.6576-5.5606-0.24027-12.679-4.2422-16.881-2.867-3.01-7.7794-3.4759-11.934-3.625-3.5929-0.12893-10.518 2.3867-10.518 2.3867l-3.7129-4.0664-0.08789-3.8008-3.9785-0.08789 0.35352-3.1816-1.5898-1.9453-4.1543-0.08789 0.70703-3.0938-3.8008-0.26563 0.53125-2.8281zm65.414 64.43c1.4328 0.0038 2.8572 0.33435 4.0703 1.2285 3.4488 2.542 5.585 7.1172 1.125 12-4.2336 4.6349-13.455 6.8296-18 2.5-3.5217-3.3544-1.2461-9.4636 5.375-13.5 1.0834-0.66047 4.2775-2.2369 7.4297-2.2285z" fill="#fff" stroke="#f00" stroke-width=".29055"/>
  <g shape-rendering="auto">
   <path d="m20.047 2.9507c-0.47785 0.024372-0.91724 0.20715-1.4794 0.41017-0.96032 0.3468-5.6615 3.9162-6.5644 5.0687-0.63796 0.81435-1.2581 1.5885-1.5629 2.644-0.30485 1.0554 0.16716 2.0025 0.30526 2.2717l3.6479 4.3689c-0.26 0.18431-0.41863 0.31-0.74219 0.57422-0.76242 0.6226-1.3113 1.3023-1.712 2.1098-0.4006 0.80745-0.82459 0.83191-1.3681 0.8199-1.0737-0.02374-2.6235-0.09687-4.2129 0.64453-3.4785 1.6226-6.1045 5.0361-6.3637 9.0934l11.602 14.721 3.3333-2.5981c0.36945-1.4829-0.4925-2.5267 0.46947-4.0836 0.55322-0.89537 1.7264-1.8873 2.3359-2.0254 0.70337-0.15939 1.202-0.27426 2.1102 0.08645 0.9082 0.3607 2.3002 0.48662 3.0695 0.15965 0.76931-0.32698 0.89859-0.39972 1.7695-1.3262 0.95305-1.0138 1.3047-1.5999 1.5137-2.5996 0.18793-0.89906 0.92365-1.6166 1.1875-1.8301l21.176 23.145c0.45004-0.10132 1.6998-1.2815 2.5565-0.11011 0.54721 0.74817 0.12632 1.1941-0.30909 1.9218-0.31804 0.53151-0.18763 1.0268 0.16575 1.4397 0.35338 0.41287 0.92849 0.60674 1.8809-0.03864 0.54776-0.37117 0.99483 0.32159 1.1909 0.56672 0.6106 0.76322-0.36089 1.4106-0.5967 2.0975l2.8588 3.4239c0.81401-0.26354 2.1593-0.92254 2.6402-0.3894 0.334 0.37026-0.14494 1.0972-0.27075 1.9244-0.10476 0.68875-0.106 1.3134 0.4702 1.9248 0.54395 0.57721 1.2265 0.57645 1.7622 0.43773 0.73719-0.19089 1.3045-0.56596 1.9668-0.91211 1.2232 0.68104 2.05 1.6561 2.7363 2.6543-0.33644 0.46706-0.64407 0.86763-1.3711 2.0078-1.0389 1.6292-2.2106 3.646-2.7656 5.4609-1.6215 5.3026-0.17177 12.208 3.5879 15.805 5.362 5.1294 14.587 7.0538 21.557 4.9902 7.3844-2.1862 14.731-9.8864 16.736-17.488 1.4192-5.3811-0.41882-12.099-4.3438-16.033-3.872-3.8811-9.8229-4.3045-14.678-4.3945-1.9306-0.03579-4.2205 0.66744-6.1992 1.334-1.5006 0.50547-2.1789 0.80079-2.709 1.0176-1.2286-1.077-2.5311-2.259-3.4856-3.507 0.40488-1.2741 0.92832-2.851 0.23564-3.68-0.93583-1.1199-3.2465-0.06199-3.7391-0.56796-0.7929-0.93629 0.66611-2.5148 0.66611-2.5148l-3.0141-3.2444c-1.1212 0.56525-2.5836 1.4565-3.0598 0.88971-0.7454-0.88716 1.4469-2.0006 0.28523-3.2621-1.0934-0.9935-2.3828 0.46893-2.9925-0.38192-0.71513-0.99789 0.32266-1.4807 0.37796-1.9008l-37.656-39.953c-0.27158-0.28814-0.76103-0.63158-1.3018-0.88195s-1.1536-0.31855-1.698-0.29079zm1.2351 3.4588 35.336 37.366c-0.01234 0.202 1.8078 1.0663 1.5234 1.8141-0.40116 1.0545-0.542 1.8065 0.4311 2.6792 0.4992 0.44772 1.8564-0.74854 2.764 0.17623 0.68661 0.83638-0.77443 1.5224 0.16357 2.7538 0.82085 1.0776 2.2157 0.29831 3.0478 0.14774 0.51158 0.42284 1.8204 1.938 1.8204 1.938-0.51714 0.50456-0.5555 1.9847 0.25291 2.8091 1.4115 1.4393 2.8649-0.71976 3.9365 0.39235 0.77403 0.80327 0.24936 1.9983-0.30576 3.2183 1.7615 2.1576 2.8972 3.1506 4.7062 5.3798 0 0 2.2167-0.53995 4.084-1.1689 1.8673-0.62899 4.172-1.2073 5.2422-1.1875 4.6945 0.08703 9.849 0.68206 12.723 3.5625 3.0323 3.0394 4.7042 9.1648 3.6113 13.309-1.661 6.2979-9.1535 10.723-15.553 12.617-5.962 1.7651-11.907-1.1249-15.416-3.9434-3.1527-2.5325-4.4512-5.5299-4.8359-9.8359-0.11611-1.2997 0.83745-3.821 1.8184-5.3594s2.5528-3.4967 2.5528-3.4967l0.56445-0.75977-0.48438-0.8125c-1.4624-1.4834-2.7163-2.6624-4.1525-3.7309-1.2166 0.58679-2.5327 0.9937-3.4638 0.21174-0.80812-0.80674 0.02088-2.2627-0.4856-2.9061-0.49227-0.62537-1.3352-1.1442-2.2735-0.79688-0.83132-0.82472-1.2786-1.1963-2.1871-2.4485 0.01937-0.28115 0.0678-0.6231 0.2976-1.0434 0.20972-0.38362 0.24481-0.77578-0.19241-1.3531-0.25383-0.33514-0.41399-0.56657-1.1951-0.58395-0.78865-0.01754-1.1626 0.50944-1.8191-0.03117-0.38791-0.31942-0.33492-0.87003-0.0199-1.2349 0.41774-0.48389 0.11024-1.5391-0.12949-1.8399-0.43284-0.54312-0.8216-0.44252-1.2405-0.5571-0.54942-0.15028-1.1889 0.01509-1.6289 0.03102l-20.852-23.425c0.09007-0.1756 0.90798-0.87175 0.90798-0.87175-1.0992-0.77207-4.0827-0.61436-5.1356-0.24026-0.90971 0.32323-1.7796 1.0182-2.5605 2.0887-0.7809 1.0704-1.0725 1.3987-1.3184 1.7043-0.58388 0.72572-1.0455 1.029-1.7344 1.002-1.0784-0.04227-1.7745-0.07646-2.9258-0.12695-1.3717-0.06016-3.2384 1.1198-3.8773 1.9021-1.5623 1.9129-2.5821 4.0291-2.8122 6.4416l-8.2617-10.584c0.67187-1.7655 2.2767-4.1135 4.1871-4.8542 1.9104-0.74067 2.9404-0.73627 4.1156-0.7103 0.58759 0.01299 1.2017 0.03554 1.8906-0.14062 0.68894-0.17617 1.5149-0.71478 1.8791-1.706 0.36422-0.9912 0.68734-1.3294 1.1678-1.7217s1.1955-1.2935 2.1367-1.9082c1.7071-1.1149 3.6864-0.72607 5.709-0.89453-1.4734-0.55857-2.6098-1.0048-4.4235-1.6769-1.493-1.1882-3.125-2.8015-4.3895-4.3171-0.33454-0.41194-0.06997-0.73206 0.3775-1.6681 0.83602-1.7489 3.1347-3.0769 4.6738-3.5742 1.0148-0.3279 1.1785-0.68519 1.7539-0.035156z" color="#000000" color-rendering="auto" image-rendering="auto" solid-color="#000000" style="isolation:auto;mix-blend-mode:normal;text-decoration-color:#000000;text-decoration-line:none;text-decoration-style:solid;text-indent:0;text-transform:none;white-space:normal"/>
   <path d="m84.571 65.816c-3.302 0.49588-6.5582 1.9333-8.8613 3.8672-2.0079 1.6859-3.7464 4.263-4.6855 7.0273-0.93914 2.7644-1.0887 5.8906 0.78125 8.207 2.2645 2.8052 6.0854 3.5385 9.75 3.166 3.6646-0.37249 7.3339-1.8257 9.8066-4.0664 2.0315-1.8409 3.457-4.6559 4.0332-7.5723 0.57623-2.9164 0.29766-6.0706-1.7441-8.2383-2.2837-2.4245-5.7781-2.8865-9.0801-2.3906zm0.16992 5.6797c1.8775-0.03835 4.5799-0.32222 5.9707 1.1543 1.1498 1.2207 1.9915 2.2717 1.9023 3.2461-0.21833 2.3849-1.7384 4.7348-3.1562 6.0195-1.858 1.6837-5.1041 3.909-8.1895 4.2227s-6.1013-0.75964-7.5078-2.502c-1.0128-1.2546-1.2888-4.0057-0.05273-6.0156 0.75903-1.2342 3.0826-3.4753 4.8242-4.3906 1.926-1.0122 3.4262-1.6775 6.209-1.7344z" color="#000000" color-rendering="auto" image-rendering="auto" solid-color="#000000" style="isolation:auto;mix-blend-mode:normal;text-decoration-color:#000000;text-decoration-line:none;text-decoration-style:solid;text-indent:0;text-transform:none;white-space:normal"/>
   <path d="m56.187 50.378c-0.94446 0.90347-2.0504 3.7008-1.3367 4.2272 0.71371 0.52634 1.7511-2.1815 2.6095-2.9943 0.78365-0.742 3.6279-1.9082 3.1177-2.6384s-3.4916 0.54572-4.3905 1.4056z" color="#000000" color-rendering="auto" image-rendering="auto" solid-color="#000000" style="isolation:auto;mix-blend-mode:normal;text-decoration-color:#000000;text-decoration-line:none;text-decoration-style:solid;text-indent:0;text-transform:none;white-space:normal"/>
   <path d="m64.386 59.152c-0.93964 0.94632-2.4828 4.3072-1.6901 4.71 0.79272 0.40282 2.2491-2.8141 3.1128-3.6376 0.78305-0.7466 3.7658-1.9089 3.2659-2.6509-0.49988-0.74208-3.714 0.59695-4.6886 1.5785z" color="#000000" color-rendering="auto" image-rendering="auto" solid-color="#000000" style="isolation:auto;mix-blend-mode:normal;text-decoration-color:#000000;text-decoration-line:none;text-decoration-style:solid;text-indent:0;text-transform:none;white-space:normal"/>
   <path d="m12.891 24.389c-0.42804 0.42252 1.0762 2.5577 1.9594 3.6 1.0901 1.2865 3.4284 3.5565 3.9859 3.1148 0.91524-0.72499-1.1661-3.3968-2.2026-4.4867-0.68007-0.71508-2.9048-3.0553-3.7427-2.2281z" color="#000000" color-rendering="auto" image-rendering="auto" solid-color="#000000" style="isolation:auto;mix-blend-mode:normal;text-decoration-color:#000000;text-decoration-line:none;text-decoration-style:solid;text-indent:0;text-transform:none;white-space:normal"/>
  </g>
  <g>
   <path d="m13.953 8.4547c1.3228 1.205 3.3418 1.9842 4.6441 3.2198 17.51 16.614 33.268 35.857 49.888 53.807 0.201 0.21707 1.6922-0.53045 3.0096-0.71557 1.0864-0.15266 2.0829 0.24681 1.8927 0.39928-1.3387 1.0729-3.119 2.2336-2.7776 2.5983l-2.74 2.74-3.7123-4.331-3.4471 0.08839-1.4142-3.9775-11.314-11.756-20.683-21.39 2.3865-1.591c-3.2066-3.015-6.4908-5.8746-9.0156-10.253h-3.3588l-5.5685-5.8336z" fill="url(#c)"/>
   <path d="m14.926 19.415 9.8995 12.374-7.3362 3.2704-8.7504-11.844z" fill="url(#b)"/>
   <path d="m3.7004 25.072 9.3692 11.844-1.2374 6.9827-11.049-13.523z" fill="url(#a)"/>
  </g>
 </g>
</svg>
